<?xml version="1.0" encoding="utf-8"?>
<!-- Generator: Adobe Illustrator 21.1.0, SVG Export Plug-In . SVG Version: 6.00 Build 0)  -->
<svg version="1.1" id="Calque_1" xmlns="http://www.w3.org/2000/svg" xmlns:xlink="http://www.w3.org/1999/xlink" x="0px" y="0px"
	 viewBox="0 0 241.6 256" style="enable-background:new 0 0 241.6 256;" xml:space="preserve">
<style type="text/css">
	.st0{fill:#38424A;}
</style>
<path class="st0" d="M138.7,256c-13.7,0-27.3,0-41,0c-13.9-5.3-19.4-15.7-19.4-30.2c0-6.8-0.1-14-3.1-20.6c-1-2.1-1.8-3.6-4.7-3.3
	c-20.3,2-38.9-13.1-43.9-32.6c-0.4-1.7-1.3-2.8-3-3.7C9.5,157.5,1.6,145,0.2,128.9C-1.3,111,5,96.3,19.4,85.4
	c2.5-1.9,3.8-1.9,4.7,1.5c0.6,2.4,1,5.1,3.9,7.3c-5.9-21.4-2-39.7,16-52.5C61.9,29,80.3,31.1,98,43.5C95.5,38.4,91.5,35,87.1,32
	c-7.9-5.3-7.9-5.3-2.2-13.4c0.5-0.7,1-1.3,1.5-2C93,7.6,102.4,3,112.7,0c4.3,0,8.7,0,13,0c17.1,4.6,29,14.8,34.2,32
	c0.6,2.1,1.8,1.8,3.4,1.2c5.5-1.7,11.1-1.9,16.8-1.3c17.5,1.8,34.9,19.2,36.6,36.6c0.3,3.1,0.2,5.1-4.1,4.2
	c-13.3-2.8-24.6,1.5-34.4,10.4c-1.6,1.5-4,2.9-4.1,5.8c2.5-0.5,3.7-2.2,5.2-3.4c8.3-6,17.5-8.8,27.7-7.1
	c16.8,2.8,29.5,15.3,33.2,32.4c4.1,18.9-3,37.7-18.1,47.3c-3.6,2.2-4.6,4.5-4.7,8.6c-1.2,29.4-26.8,50.3-53.9,42.7
	c-3.5-1-3.7,0.8-3.9,3c-0.5,5.3-0.9,10.6-1.3,15.9c-0.5,7.6-1.8,14.9-7.6,20.5C147.4,252.4,143,254,138.7,256z M173.9,90.2
	c0.5-0.4,1.7-0.7,0.8-1.6c-0.9-0.8-1.2,0.4-1.7,0.9c-0.3,0.5-1,1-0.1,1.5C173.1,91.1,173.6,90.5,173.9,90.2z M133.2,158.8
	c0.1,0,0.2,0,0.3,0c0-5.2-0.2-10.3,0.1-15.5c0.2-3-1-3.6-3.7-3.6c-7.5,0.1-15,0.2-22.5,0c-3.3-0.1-3.9,1.1-3.7,4
	c0.5,9.5,0.7,18.9,1,28.4c0.1,2.3,0.6,4.9-2.4,5.8c-3.2,1-4.3-1.6-5.6-3.7c-6-10.6-12.1-21.1-17.9-31.7c-1.4-2.4-2.4-3-4.8-1.2
	c-4.2,3.3-8.4,6.5-13,9.3c-3,1.9-2.6,3.4-1,5.9c5.4,8.4,10.2,17.2,16.1,25.2c9.9,13.5,15.5,28.1,15.3,44.9c0,1.8,0.1,3.7,0.3,5.5
	c0.7,6.4,4.7,10.6,11,10.7c10.5,0.3,21,0.3,31.5,0c5.9-0.1,9.8-4,10.8-9.8c0.4-2.1,0.6-4.3,0.6-6.5c0-15.2,4-29,13.1-41.5
	c6.7-9.3,12.3-19.4,18.5-29c1.4-2.2,1.6-3.5-0.9-5.1c-4.6-3-9-6.2-13.4-9.6c-2.4-1.9-3.4-1.3-4.7,1.2c-4.7,8.6-9.7,17.1-14.5,25.6
	c-1.4,2.5-2.8,4.9-4.2,7.4c-1.1,1.8-2.5,3.3-4.9,2.5c-2.2-0.7-1.5-2.7-1.5-4.2C133.2,168.8,133.2,163.8,133.2,158.8z"/>
</svg>
